<svg width="25" height="24" viewBox="0 0 25 24" fill="none" xmlns="http://www.w3.org/2000/svg">
<g clip-path="url(#clip0_6892_24622)">
<path d="M17.5 3.33989C19.0202 4.21758 20.2826 5.47997 21.1603 7.00017C22.038 8.52038 22.5 10.2448 22.5 12.0002C22.5 13.7556 22.0379 15.48 21.1602 17.0002C20.2825 18.5204 19.0201 19.7828 17.4999 20.6605C15.9797 21.5381 14.2552 22.0002 12.4998 22.0001C10.7445 22.0001 9.02002 21.538 7.49984 20.6603C5.97965 19.7826 4.71729 18.5202 3.83963 17C2.96198 15.4797 2.49996 13.7553 2.5 11.9999L2.505 11.6759C2.561 9.94888 3.06355 8.26585 3.96364 6.79089C4.86373 5.31592 6.13065 4.09934 7.64089 3.25977C9.15113 2.42021 10.8531 1.98629 12.581 2.00033C14.3089 2.01437 16.0036 2.47589 17.5 3.33989ZM12.5 14.9999C12.2348 14.9999 11.9804 15.1052 11.7929 15.2928C11.6054 15.4803 11.5 15.7347 11.5 15.9999V16.0099C11.5 16.2751 11.6054 16.5295 11.7929 16.717C11.9804 16.9045 12.2348 17.0099 12.5 17.0099C12.7652 17.0099 13.0196 16.9045 13.2071 16.717C13.3946 16.5295 13.5 16.2751 13.5 16.0099V15.9999C13.5 15.7347 13.3946 15.4803 13.2071 15.2928C13.0196 15.1052 12.7652 14.9999 12.5 14.9999ZM12.5 7.99989C12.2348 7.99989 11.9804 8.10525 11.7929 8.29279C11.6054 8.48032 11.5 8.73468 11.5 8.99989V12.9999C11.5 13.2651 11.6054 13.5195 11.7929 13.707C11.9804 13.8945 12.2348 13.9999 12.5 13.9999C12.7652 13.9999 13.0196 13.8945 13.2071 13.707C13.3946 13.5195 13.5 13.2651 13.5 12.9999V8.99989C13.5 8.73468 13.3946 8.48032 13.2071 8.29279C13.0196 8.10525 12.7652 7.99989 12.5 7.99989Z" fill="#EFFF04"/>
</g>
<defs>
<clipPath id="clip0_6892_24622">
<rect width="24" height="24" fill="white" transform="translate(0.5)"/>
</clipPath>
</defs>
</svg>
