<svg width="24" height="24" viewBox="0 0 24 24" fill="none" xmlns="http://www.w3.org/2000/svg">
<path d="M11.9992 22.4999C10.0492 22.4999 8.27966 22.0172 6.69055 21.0518C5.10145 20.0864 3.85498 18.7928 2.95115 17.171V20.1537H1.45117V14.6538H6.95115V16.1537H4.11072C4.83381 17.6102 5.9024 18.782 7.3165 19.6692C8.73061 20.5564 10.2915 21 11.9992 21C13.2236 21 14.372 20.7737 15.4444 20.3211C16.5168 19.8685 17.4556 19.2509 18.2607 18.4682C19.0659 17.6855 19.7124 16.7612 20.2002 15.6952C20.688 14.6291 20.9511 13.4807 20.9896 12.25H22.4896C22.4575 13.6705 22.1604 15.0025 21.5982 16.2461C21.036 17.4897 20.2822 18.5762 19.3367 19.5057C18.3912 20.4352 17.2886 21.1666 16.029 21.6999C14.7694 22.2333 13.4261 22.4999 11.9992 22.4999ZM1.50887 11.7499C1.55376 10.2974 1.86049 8.94772 2.42907 7.70092C2.99766 6.45414 3.75791 5.36922 4.70982 4.44615C5.66176 3.52308 6.76271 2.80129 8.0127 2.28077C9.2627 1.76026 10.5915 1.5 11.9992 1.5C13.93 1.5 15.6995 1.9843 17.3079 2.9529C18.9162 3.9215 20.1627 5.22633 21.0473 6.86738V3.8462H22.5473V9.34615H17.0473V7.8462H19.8877C19.1839 6.4154 18.1233 5.25 16.706 4.35C15.2887 3.44997 13.7197 2.99995 11.9992 2.99995C10.8005 2.99995 9.66653 3.22302 8.5973 3.66917C7.52808 4.11532 6.5877 4.72654 5.77615 5.50282C4.96461 6.27911 4.31013 7.20026 3.8127 8.26627C3.31526 9.33231 3.04731 10.4935 3.00885 11.7499L1.50887 11.7499Z" fill="white"/>
</svg>
