<svg width="33" height="7" viewBox="0 0 33 7" fill="none" xmlns="http://www.w3.org/2000/svg">
<path d="M31.6618 2.15637V3.10062H28.9595V3.46144H32.1454V4.42105H30.5256V5.05824H32.821V6.05623H27.1094V5.05824H29.4048V4.42105H27.8771V0.835938H31.9458V1.80323H28.9595V2.15637H31.6618Z" fill="white"/>
<path d="M26.7526 6.05786H21.041V5.05986H23.3364V4.22308H21.6628V3.27114H22.3V1.92769H21.6628V0.929688H26.1385V1.92769H25.5013V3.27114H26.1385V4.22308H24.4572V5.05986H26.7526V6.05786ZM24.4572 3.27114V1.92769H23.3441V3.27114H24.4572Z" fill="white"/>
<path d="M16.743 4.28428C16.4871 4.28428 16.2465 4.23822 16.0213 4.1461C15.7961 4.04886 15.6017 3.91835 15.4379 3.75458C15.2639 3.59592 15.1282 3.40911 15.031 3.19416C14.9338 2.97409 14.8851 2.73866 14.8851 2.48789C14.8851 2.23711 14.9338 2.00424 15.031 1.78929C15.1282 1.56922 15.2639 1.37729 15.4379 1.21352C15.6017 1.04975 15.7961 0.921797 16.0213 0.829674C16.2465 0.732433 16.4871 0.683813 16.743 0.683813C16.9989 0.683813 17.2368 0.732433 17.4569 0.829674C17.6821 0.921797 17.8791 1.04975 18.048 1.21352C18.2118 1.37729 18.3423 1.56922 18.4396 1.78929C18.5419 2.00424 18.5931 2.23711 18.5931 2.48789C18.5931 2.73866 18.5419 2.97409 18.4396 3.19416C18.3423 3.40911 18.2118 3.59592 18.048 3.75458C17.8791 3.91835 17.6821 4.04886 17.4569 4.1461C17.2368 4.23822 16.9989 4.28428 16.743 4.28428ZM16.743 1.68181C16.5229 1.68181 16.3361 1.76114 16.1825 1.91979C16.0341 2.07333 15.9599 2.2627 15.9599 2.48789C15.9599 2.71307 16.0341 2.90244 16.1825 3.05598C16.3361 3.20951 16.5229 3.28628 16.743 3.28628C16.8453 3.28628 16.9426 3.26837 17.0347 3.23255C17.1319 3.1916 17.2164 3.13275 17.288 3.05598C17.3597 2.98433 17.416 2.89988 17.4569 2.80264C17.4979 2.70028 17.5183 2.59536 17.5183 2.48789C17.5183 2.38041 17.4979 2.27805 17.4569 2.18081C17.416 2.07845 17.3597 1.98889 17.288 1.91212C17.2164 1.84047 17.1319 1.78417 17.0347 1.74323C16.9426 1.70228 16.8453 1.68181 16.743 1.68181ZM20.5123 6.05765H19.4145V0.253906H20.5123V6.05765ZM19.1228 4.9445V5.91946H14.6855V4.9445H19.1228Z" fill="#EFFF04"/>
<path d="M9.09232 2.49556C8.97973 2.49556 8.87225 2.52115 8.76989 2.57233C8.66753 2.62351 8.57797 2.69516 8.5012 2.78729C8.42443 2.87429 8.36302 2.97921 8.31695 3.10204C8.27089 3.22487 8.24786 3.35282 8.24786 3.48588C8.24786 3.62407 8.27089 3.75457 8.31695 3.87741C8.36302 3.99512 8.42443 4.09748 8.5012 4.18448C8.57797 4.2766 8.66753 4.34826 8.76989 4.39944C8.87225 4.45061 8.97973 4.4762 9.09232 4.4762C9.21003 4.4762 9.32007 4.45061 9.42243 4.39944C9.52479 4.34826 9.61435 4.2766 9.69112 4.18448C9.76789 4.09748 9.82675 3.99512 9.86769 3.87741C9.91375 3.75457 9.93678 3.62407 9.93678 3.48588C9.93678 3.35282 9.91375 3.22487 9.86769 3.10204C9.82675 2.97921 9.76789 2.87429 9.69112 2.78729C9.61435 2.69516 9.52479 2.62351 9.42243 2.57233C9.32007 2.52115 9.21003 2.49556 9.09232 2.49556ZM9.09232 5.52794C8.83643 5.52794 8.59588 5.47676 8.37069 5.3744C8.15062 5.26693 7.95614 5.12106 7.78725 4.93682C7.61836 4.74746 7.48529 4.52994 7.38805 4.28428C7.29081 4.0335 7.24219 3.76737 7.24219 3.48588C7.24219 3.2044 7.29081 2.94082 7.38805 2.69516C7.48529 2.4495 7.61836 2.23199 7.78725 2.04262C7.95614 1.85838 8.15062 1.71508 8.37069 1.61272C8.59588 1.50524 8.83643 1.4515 9.09232 1.4515C9.34822 1.4515 9.58876 1.50524 9.81395 1.61272C10.0391 1.71508 10.2336 1.85838 10.3974 2.04262C10.5663 2.23199 10.6968 2.4495 10.7889 2.69516C10.8862 2.94082 10.9348 3.2044 10.9348 3.48588C10.9348 3.76737 10.8862 4.0335 10.7889 4.28428C10.6968 4.52994 10.5663 4.74746 10.3974 4.93682C10.2336 5.12106 10.0391 5.26693 9.81395 5.3744C9.58876 5.47676 9.34822 5.52794 9.09232 5.52794ZM12.8847 3.57801H12.2629V6.05765H11.1958V0.622398H12.2629V2.60304H12.8847V0.253906H13.9595V6.05765H12.8847V3.57801Z" fill="white"/>
<path d="M1.57265 4.38408L0.820312 3.67013L2.22519 2.15778H1.11203V1.29797H2.41711V0.330675H3.53026V1.29797H4.83533V2.15778H3.72218L5.11938 3.67013L4.37472 4.38408L2.96985 2.58001L1.57265 4.38408ZM6.71618 6.05765H5.61838V0.253906H6.71618V6.05765ZM5.31898 4.9445V5.91946H0.889405V4.9445H2.37872V3.7469H3.49955V4.9445H5.31898Z" fill="white"/>
</svg>
