<svg width="24" height="24" viewBox="0 0 24 24" fill="none" xmlns="http://www.w3.org/2000/svg">
<path d="M12.0002 22.4999C10.0502 22.4999 8.28064 22.0172 6.69152 21.0518C5.10242 20.0864 3.85596 18.7928 2.95212 17.171V20.1537H1.45215V14.6538H6.95212V16.1537H4.1117C4.83478 17.6102 5.90337 18.782 7.31747 19.6692C8.73159 20.5564 10.2925 21 12.0002 21C13.2245 21 14.3729 20.7737 15.4454 20.3211C16.5178 19.8685 17.4566 19.2509 18.2617 18.4682C19.0669 17.6855 19.7133 16.7612 20.2011 15.6952C20.689 14.6291 20.9521 13.4807 20.9906 12.25H22.4905C22.4585 13.6705 22.1614 15.0025 21.5992 16.2461C21.037 17.4897 20.2832 18.5762 19.3377 19.5057C18.3922 20.4352 17.2896 21.1666 16.03 21.6999C14.7704 22.2333 13.4271 22.4999 12.0002 22.4999ZM1.50985 11.7499C1.55473 10.2974 1.86147 8.94772 2.43005 7.70092C2.99863 6.45414 3.75888 5.36922 4.7108 4.44615C5.66273 3.52308 6.76369 2.80129 8.01367 2.28077C9.26367 1.76026 10.5925 1.5 12.0002 1.5C13.931 1.5 15.7005 1.9843 17.3089 2.9529C18.9172 3.9215 20.1637 5.22633 21.0483 6.86738V3.8462H22.5482V9.34615H17.0483V7.8462H19.8887C19.1848 6.4154 18.1243 5.25 16.7069 4.35C15.2896 3.44997 13.7207 2.99995 12.0002 2.99995C10.8015 2.99995 9.66751 3.22302 8.59827 3.66917C7.52906 4.11532 6.58867 4.72654 5.77712 5.50282C4.96559 6.27911 4.31111 7.20026 3.81367 8.26627C3.31624 9.33231 3.04829 10.4935 3.00982 11.7499L1.50985 11.7499Z" fill="#5A5A5A"/>
</svg>
